<?xml version="1.0" encoding="UTF-8"?><svg id="a" xmlns="http://www.w3.org/2000/svg" viewBox="0 0 256 256"><rect width="256" height="256" rx="40" ry="40" style="fill:#fff; stroke-width:0px;"/><path d="M89.36,151.18h-30.91c-8.54,0-15.45,6.92-15.45,15.45v30.91c0,8.54,6.92,15.45,15.45,15.45h30.91c8.54,0,15.45-6.92,15.45-15.45v-30.91c0-8.54-6.92-15.45-15.45-15.45ZM89.36,189.82c0,4.27-3.46,7.73-7.73,7.73h-15.45c-4.27,0-7.73-3.46-7.73-7.73v-15.45c0-4.27,3.46-7.73,7.73-7.73h15.45c4.27,0,7.73,3.46,7.73,7.73v15.45Z" style="stroke-width:0px;"/><path d="M89.36,43h-30.91c-8.54,0-15.45,6.92-15.45,15.45v30.91c0,8.54,6.92,15.45,15.45,15.45h30.91c8.54,0,15.45-6.92,15.45-15.45v-30.91c0-8.54-6.92-15.45-15.45-15.45ZM89.36,81.64c0,4.27-3.46,7.73-7.73,7.73h-15.45c-4.27,0-7.73-3.46-7.73-7.73v-15.45c0-4.27,3.46-7.73,7.73-7.73h15.45c4.27,0,7.73,3.46,7.73,7.73v15.45Z" style="stroke-width:0px;"/><path d="M197.55,43h-30.91c-8.54,0-15.45,6.92-15.45,15.45v30.91c0,8.54,6.92,15.45,15.45,15.45h30.91c8.54,0,15.45-6.92,15.45-15.45v-30.91c0-8.54-6.92-15.45-15.45-15.45ZM197.55,81.64c0,4.27-3.46,7.73-7.73,7.73h-15.45c-4.27,0-7.73-3.46-7.73-7.73v-15.45c0-4.27,3.46-7.73,7.73-7.73h15.45c4.27,0,7.73,3.46,7.73,7.73v15.45Z" style="stroke-width:0px;"/><rect x="120.27" y="43" width="15.45" height="15.45" style="stroke-width:0px;"/><rect x="120.27" y="73.91" width="15.45" height="30.91" style="stroke-width:0px;"/><rect x="43" y="120.27" width="15.45" height="15.45" style="stroke-width:0px;"/><rect x="73.91" y="120.27" width="30.91" height="15.45" style="stroke-width:0px;"/><rect x="182.09" y="135.73" width="15.45" height="30.91" style="stroke-width:0px;"/><rect x="135.73" y="135.73" width="15.45" height="30.91" style="stroke-width:0px;"/><rect x="197.55" y="182.09" width="15.45" height="15.45" style="stroke-width:0px;"/><rect x="135.73" y="197.55" width="61.82" height="15.45" style="stroke-width:0px;"/><rect x="120.27" y="182.09" width="15.45" height="15.45" style="stroke-width:0px;"/></svg>