<?xml version="1.0" encoding="UTF-8"?><svg id="a" xmlns="http://www.w3.org/2000/svg" viewBox="0 0 64 64"><path d="M17.45,40.73H5.82C2.6,40.73,0,43.33,0,46.55v11.64C0,61.4,2.6,64,5.82,64h11.64c3.21,0,5.82-2.6,5.82-5.82v-11.64c0-3.21-2.6-5.82-5.82-5.82ZM17.45,55.27c0,1.61-1.3,2.91-2.91,2.91h-5.82c-1.61,0-2.91-1.3-2.91-2.91v-5.82c0-1.61,1.3-2.91,2.91-2.91h5.82c1.61,0,2.91,1.3,2.91,2.91v5.82Z" style="stroke-width:0px;"/><path d="M17.45,0H5.82C2.6,0,0,2.6,0,5.82v11.64C0,20.67,2.6,23.27,5.82,23.27h11.64c3.21,0,5.82-2.6,5.82-5.82V5.82c0-3.21-2.6-5.82-5.82-5.82ZM17.45,14.55c0,1.61-1.3,2.91-2.91,2.91h-5.82c-1.61,0-2.91-1.3-2.91-2.91v-5.82c0-1.61,1.3-2.91,2.91-2.91h5.82c1.61,0,2.91,1.3,2.91,2.91v5.82Z" style="stroke-width:0px;"/><path d="M58.18,0h-11.64c-3.21,0-5.82,2.6-5.82,5.82v11.64c0,3.21,2.6,5.82,5.82,5.82h11.64c3.21,0,5.82-2.6,5.82-5.82V5.82c0-3.21-2.6-5.82-5.82-5.82ZM58.18,14.55c0,1.61-1.3,2.91-2.91,2.91h-5.82c-1.61,0-2.91-1.3-2.91-2.91v-5.82c0-1.61,1.3-2.91,2.91-2.91h5.82c1.61,0,2.91,1.3,2.91,2.91v5.82Z" style="stroke-width:0px;"/><rect x="29.09" y="0" width="5.82" height="5.82" style="stroke-width:0px;"/><rect x="29.09" y="11.64" width="5.82" height="11.64" style="stroke-width:0px;"/><rect x="0" y="29.09" width="5.82" height="5.82" style="stroke-width:0px;"/><rect x="11.64" y="29.09" width="11.64" height="5.82" style="stroke-width:0px;"/><rect x="52.36" y="34.91" width="5.82" height="11.64" style="stroke-width:0px;"/><rect x="34.91" y="34.91" width="5.82" height="11.64" style="stroke-width:0px;"/><rect x="58.18" y="52.36" width="5.82" height="5.82" style="stroke-width:0px;"/><rect x="34.91" y="58.18" width="23.27" height="5.82" style="stroke-width:0px;"/><rect x="29.09" y="52.36" width="5.82" height="5.82" style="stroke-width:0px;"/></svg>